<svg width="826.123" height="73.097" viewBox="0 0 826.123 73.097" xmlns="http://www.w3.org/2000/svg"><g id="svgGroup" stroke-linecap="round" fill-rule="evenodd" font-size="9pt" stroke="#ffffff" stroke-width="0.25mm" fill="#ffffff" style="stroke:#ffffff;stroke-width:0.25mm;fill:#ffffff"><path d="M 147.07 51.661 L 178.271 0.977 L 190.625 0.977 L 190.625 72.071 L 178.271 72.071 L 178.271 21.436 L 147.07 72.071 L 134.717 72.071 L 134.717 0.977 L 147.07 0.977 L 147.07 51.661 Z M 711.865 51.661 L 743.066 0.977 L 755.42 0.977 L 755.42 72.071 L 743.066 72.071 L 743.066 21.436 L 711.865 72.071 L 699.512 72.071 L 699.512 0.977 L 711.865 0.977 L 711.865 51.661 Z M 782.568 51.661 L 813.77 0.977 L 826.123 0.977 L 826.123 72.071 L 813.77 72.071 L 813.77 21.436 L 782.568 72.071 L 770.215 72.071 L 770.215 0.977 L 782.568 0.977 L 782.568 51.661 Z M 684.912 0.977 L 684.912 72.071 L 672.607 72.071 L 672.607 40.479 L 640.82 40.479 L 640.82 72.071 L 628.467 72.071 L 628.467 0.977 L 640.82 0.977 L 640.82 30.567 L 672.607 30.567 L 672.607 0.977 L 684.912 0.977 Z M 55.908 0.977 L 55.908 72.071 L 43.604 72.071 L 43.604 10.938 L 12.305 10.938 L 12.305 72.071 L 0 72.071 L 0 0.977 L 55.908 0.977 Z M 286.572 0.977 L 286.572 72.071 L 274.268 72.071 L 274.268 10.938 L 242.969 10.938 L 242.969 72.071 L 230.664 72.071 L 230.664 0.977 L 286.572 0.977 Z M 379.053 0.977 L 424.902 0.977 L 424.902 72.071 L 412.598 72.071 L 412.598 10.938 L 390.82 10.938 L 389.551 38.429 A 134.31 134.31 0 0 1 388.938 45.834 Q 388.164 52.702 386.745 57.357 A 34.979 34.979 0 0 1 386.401 58.424 A 27.849 27.849 0 0 1 384.39 63.024 Q 382.339 66.701 379.395 68.8 Q 375.544 71.544 369.495 71.986 A 33.003 33.003 0 0 1 367.09 72.071 L 363.965 72.071 L 363.965 62.208 L 365.918 62.061 A 12.473 12.473 0 0 0 368.778 61.478 A 8.554 8.554 0 0 0 372.485 59.083 Q 374.125 57.253 375.204 54.093 A 28.296 28.296 0 0 0 376.001 51.246 A 45.709 45.709 0 0 0 376.618 47.901 Q 377.167 44.246 377.501 39.089 A 195.256 195.256 0 0 0 377.686 35.792 L 379.053 0.977 Z M 613.477 30.567 L 613.477 40.333 L 584.277 40.333 L 584.277 62.208 L 618.408 62.208 L 618.408 72.071 L 571.924 72.071 L 571.924 0.977 L 618.066 0.977 L 618.066 10.938 L 584.277 10.938 L 584.277 30.567 L 613.477 30.567 Z M 544.824 0.977 L 557.129 0.977 L 557.129 72.071 L 544.824 72.071 L 544.824 44.093 A 67.017 67.017 0 0 1 528.32 46.095 A 46.282 46.282 0 0 1 521.13 45.573 Q 513.583 44.384 509.033 40.479 A 17.872 17.872 0 0 1 503.553 31.797 Q 502.461 28.138 502.441 23.536 L 502.441 0.977 L 514.746 0.977 L 514.746 23.634 A 23.767 23.767 0 0 0 514.999 27.053 Q 515.624 31.133 517.79 33.225 A 7.234 7.234 0 0 0 517.871 33.302 Q 520.718 35.968 527.244 36.166 A 35.341 35.341 0 0 0 528.32 36.183 A 66.259 66.259 0 0 0 544.824 34.132 L 544.824 0.977 Z M 448.779 0.977 L 465.332 38.136 L 479.59 0.977 L 493.311 0.977 L 468.555 59.962 L 466.309 64.405 A 16.039 16.039 0 0 1 454.833 72.71 A 23.291 23.291 0 0 1 450.488 73.097 L 445.41 72.804 L 445.508 63.038 Q 446.64 63.227 449.456 63.233 A 87.962 87.962 0 0 0 449.658 63.233 Q 454.707 63.233 456.891 59.116 A 10.073 10.073 0 0 0 457.08 58.741 L 459.619 52.735 L 435.303 0.977 L 448.779 0.977 Z M 97.852 45.655 L 83.154 45.655 L 83.154 72.071 L 70.801 72.071 L 70.801 0.977 L 97.998 0.977 A 37.052 37.052 0 0 1 105.848 1.761 Q 110.969 2.871 114.846 5.553 A 22.096 22.096 0 0 1 116.919 7.179 A 20.436 20.436 0 0 1 123.864 21.707 A 28.167 28.167 0 0 1 123.926 23.585 A 25.509 25.509 0 0 1 123.04 30.496 A 18.538 18.538 0 0 1 117.065 39.845 A 22.749 22.749 0 0 1 108.832 44.203 Q 105.529 45.201 101.578 45.513 A 47.349 47.349 0 0 1 97.852 45.655 Z M 358.203 34.425 L 358.203 38.38 A 51.23 51.23 0 0 1 357.409 47.613 A 38.341 38.341 0 0 1 354.59 56.715 A 29.364 29.364 0 0 1 349.565 64.405 A 25.823 25.823 0 0 1 344.263 68.824 Q 337.549 73.048 328.809 73.048 A 30.184 30.184 0 0 1 319.208 71.559 A 27.085 27.085 0 0 1 313.403 68.824 Q 306.641 64.6 302.954 56.788 A 38.454 38.454 0 0 1 299.767 46.088 A 50.344 50.344 0 0 1 299.219 38.77 L 299.219 34.766 A 49.927 49.927 0 0 1 300.084 25.264 A 38.331 38.331 0 0 1 302.905 16.407 A 30.163 30.163 0 0 1 307.76 8.912 A 25.942 25.942 0 0 1 313.306 4.224 A 27.608 27.608 0 0 1 326.043 0.104 A 33.983 33.983 0 0 1 328.711 0.001 A 30.767 30.767 0 0 1 337.863 1.322 A 26.83 26.83 0 0 1 344.116 4.176 A 26.734 26.734 0 0 1 353.402 14.056 A 33.068 33.068 0 0 1 354.492 16.187 A 38.568 38.568 0 0 1 357.567 26.397 A 51.685 51.685 0 0 1 358.203 34.425 Z M 345.85 38.38 L 345.85 34.669 A 50.16 50.16 0 0 0 345.419 27.862 Q 344.462 20.896 341.382 16.554 A 14.266 14.266 0 0 0 331.004 10.386 A 19.434 19.434 0 0 0 328.711 10.255 A 16.315 16.315 0 0 0 322.784 11.289 Q 318.931 12.779 316.271 16.413 A 18.284 18.284 0 0 0 316.187 16.529 A 21.618 21.618 0 0 0 313.162 22.749 Q 311.629 27.644 311.572 34.278 L 311.572 38.38 A 48.549 48.549 0 0 0 312.018 45.184 Q 312.999 52.097 316.138 56.495 Q 320.703 62.891 328.809 62.891 A 17.12 17.12 0 0 0 334.429 62.013 A 14.076 14.076 0 0 0 341.431 56.641 A 20.775 20.775 0 0 0 344.209 50.88 Q 345.08 48.128 345.489 44.772 A 53.014 53.014 0 0 0 345.85 38.38 Z M 83.154 10.938 L 83.154 35.743 L 97.998 35.743 A 22.471 22.471 0 0 0 101.813 35.44 Q 105.673 34.774 108.057 32.642 A 10.007 10.007 0 0 0 111.095 27.461 Q 111.497 25.85 111.522 23.939 A 19.499 19.499 0 0 0 111.523 23.683 A 15.318 15.318 0 0 0 111.029 19.687 A 11.243 11.243 0 0 0 108.008 14.478 Q 104.575 11.117 98.627 10.945 A 22.037 22.037 0 0 0 98.34 10.938 L 83.154 10.938 Z" vector-effect="non-scaling-stroke"/></g></svg>